<?xml version="1.0" standalone="no"?>
<!DOCTYPE svg PUBLIC "-//W3C//DTD SVG 20010904//EN"
 "http://www.w3.org/TR/2001/REC-SVG-20010904/DTD/svg10.dtd">
<svg version="1.0" xmlns="http://www.w3.org/2000/svg"
 width="30pt" height="50pt" viewBox="0 0 1667.000000 1667.000000"
 preserveAspectRatio="xMidYMid meet">

<g transform="translate(0.000000,1667.000000) scale(0.100000,-0.100000)"
fill="#059669" stroke="none">
<path d="M0 15240 l0 -1430 8330 0 8330 0 0 1430 0 1430 -8330 0 -8330 0 0
-1430z"/>
<path d="M0 10640 l0 -1430 8330 0 8330 0 0 1430 0 1430 -8330 0 -8330 0 0
-1430z"/>
<path d="M0 6040 l0 -1430 8330 0 8330 0 0 1430 0 1430 -8330 0 -8330 0 0
-1430z"/>
<path d="M0 1440 l0 -1430 8330 0 8330 0 0 1430 0 1430 -8330 0 -8330 0 0
-1430z"/>
</g>
</svg>
